<?xml version="1.0" encoding="utf-8"?>
<!-- Generator: Adobe Illustrator 24.0.0, SVG Export Plug-In . SVG Version: 6.00 Build 0)  -->
<svg version="1.1" id="Capa_1_copy" xmlns="http://www.w3.org/2000/svg" xmlns:xlink="http://www.w3.org/1999/xlink" x="0px"
	 y="0px" viewBox="0 0 554.7 705.6" style="enable-background:new 0 0 554.7 705.6;" xml:space="preserve">
<style type="text/css">
	.st0{fill:#E53935;}
	.st1{fill:#D32F2F;}
</style>
<g>
	<path class="st0" d="M545.1,392.9L338.8,35.4C325.9,13.2,303,0,277.4,0S228.8,13.3,216,35.4L9.6,392.9c-12.8,22.2-12.8,48.7,0,70.9
		s35.8,35.4,61.4,35.4h412.7c25.6,0,48.6-13.3,61.4-35.4C557.9,441.6,557.9,415.1,545.1,392.9z M526.9,452.8
		c-10.5,18.3-29.4,29.2-50.5,29.2h-398c-21.1,0-40-10.9-50.5-29.2c-10.5-18.3-10.5-40.1,0-58.3l199-344.7
		c10.5-18.3,29.4-29.2,50.5-29.2c21.1,0,40,10.9,50.5,29.2l199,344.7C537.4,412.8,537.4,434.6,526.9,452.8z"/>
	<path class="st1" d="M241.3,157.4c0-19.9,16.2-36,36-36s36,16.2,36,36v116.9c0,19.9-16.2,36-36,36s-36-16.2-36-36V157.4z"/>
	<circle class="st1" cx="277.4" cy="379.7" r="36.9"/>
</g>
<g>
	<path class="st1" d="M62.9,509.4h94.5v14.4H80v69.4h72.3v14.4H80V700H62.9V509.4z"/>
	<path class="st1" d="M174,509.4h17.1v137c0,28.3,12.5,42.4,37.4,42.4c24.8,0,37.4-14.1,37.4-42.4v-137h17.1v137.2
		c0,40.3-19.2,56.6-54.5,56.6c-35.2,0-54.5-16.3-54.5-56.6V509.4z"/>
	<path class="st1" d="M310.2,509.4h17.1v176.2h79V700h-96.1V509.4z"/>
	<path class="st1" d="M423.9,509.4H441v176.2h79V700h-96.1V509.4z"/>
</g>
</svg>
