<?xml version="1.0" encoding="utf-8"?>
<!-- Generator: Adobe Illustrator 24.0.0, SVG Export Plug-In . SVG Version: 6.00 Build 0)  -->
<svg version="1.1" id="Layer_1" xmlns="http://www.w3.org/2000/svg" xmlns:xlink="http://www.w3.org/1999/xlink" x="0px" y="0px"
	 viewBox="0 0 503 502" style="enable-background:new 0 0 503 502;" xml:space="preserve">
<style type="text/css">
	.st0{fill:#FFCCBC;}
	.st1{fill:#E8E8E8;}
	.st2{fill:#FF5722;}
</style>
<g>
	<path class="st0" d="M482.5,502.1h-462c-11,0-20-9-20-20l0-462C0.4,8.8,9.5-0.3,20.8-0.3l0,0l121.6,43.1l158.2,87l113.9,132.9
		l71.2,175.6l17,43.3l0,0C502.8,493,493.7,502.1,482.5,502.1z"/>
	<path class="st1" d="M483.8,502.1L483.8,502.1c11,0,19.8-9.4,18.9-20.4c-19.2-257.4-224.6-462.8-482-482C9.8-1.1,0.4,7.6,0.4,18.7
		v0c0,10,7.7,18.2,17.7,18.9c238.5,17.8,429,208.3,446.8,446.8C465.6,494.4,473.9,502.1,483.8,502.1z"/>
	<path class="st2" d="M328.6,175.1c10.4,0,18.9-8.4,18.9-18.9c0-4.9-1.9-9.4-5-12.7l0,0l0.2-0.3C257.7,61.9,145.3,9,20.8-0.3
		C9.8-1.1,0.4,7.6,0.4,18.7v0c0,10,7.7,18.2,17.7,18.9c115.5,8.6,219.7,57.7,298.5,133.1C319.8,173.4,324,175.1,328.6,175.1z"/>
</g>
</svg>
