<?xml version="1.0" encoding="utf-8"?>
<!-- Generator: Adobe Illustrator 24.1.0, SVG Export Plug-In . SVG Version: 6.00 Build 0)  -->
<svg version="1.1" id="Layer_1" xmlns="http://www.w3.org/2000/svg" xmlns:xlink="http://www.w3.org/1999/xlink" x="0px" y="0px"
	 viewBox="0 0 503 502" style="enable-background:new 0 0 503 502;" xml:space="preserve">
<style type="text/css">
	.st0{fill:#D1C4E9;}
	.st1{fill:#E8E8E8;}
	.st2{fill:#673AB7;}
</style>
<g>
	<path class="st0" d="M502.77,481.7V19.66c0-11.05-8.95-20-20-20H20.73C9.48-0.34,0.38,8.79,0.41,20.03l0,0l42.26,120.06
		L84.6,250.86l109.98,113.93l144,83.08l129.76,42.73l14.06,11.42h0C493.64,502.05,502.77,492.94,502.77,481.7z"/>
	<path class="st1" d="M19.35-0.34L19.35-0.34C8.31-0.34-0.41,9.03,0.41,20.03C19.56,277.39,225.04,482.86,482.4,502.02
		c11,0.82,20.37-7.91,20.37-18.94v0c0-9.98-7.73-18.19-17.68-18.93C246.55,446.31,56.12,255.88,38.28,17.33
		C37.54,7.39,29.33-0.34,19.35-0.34z"/>
	<path class="st2" d="M485.1,464.15c-112.9-8.44-215.03-55.55-293.17-128.13l-0.01,0.01c-3.43-3.49-8.21-5.66-13.49-5.66
		c-10.45,0-18.92,8.47-18.92,18.92c0,5,1.95,9.53,5.12,12.91l-0.01,0.01l0.05,0.3c84.49,79.05,195.24,130.39,317.75,139.51
		c11,0.82,20.37-7.91,20.37-18.94C502.77,473.11,495.04,464.89,485.1,464.15z"/>
</g>
</svg>
