<?xml version="1.0" encoding="utf-8"?>
<!-- Generator: Adobe Illustrator 24.1.0, SVG Export Plug-In . SVG Version: 6.00 Build 0)  -->
<svg version="1.1" id="Layer_1" xmlns="http://www.w3.org/2000/svg" xmlns:xlink="http://www.w3.org/1999/xlink" x="0px" y="0px"
	 viewBox="0 0 503 502" style="enable-background:new 0 0 503 502;" xml:space="preserve">
<style type="text/css">
	.st0{fill:#D1C4E9;}
	.st1{fill:#E8E8E8;}
	.st2{fill:#673AB7;}
</style>
<g>
	<path class="st0" d="M502.77,481.7V19.66c0-11.05-8.95-20-20-20H20.73C9.48-0.34,0.38,8.79,0.41,20.03l0,0l42.26,120.06
		L84.6,250.86l109.98,113.93l144,83.08l129.76,42.73l14.06,11.42h0C493.64,502.05,502.77,492.94,502.77,481.7z"/>
	<path class="st1" d="M19.35-0.34L19.35-0.34C8.31-0.34-0.41,9.03,0.41,20.03C19.56,277.39,225.04,482.86,482.4,502.02
		c11,0.82,20.37-7.91,20.37-18.94v0c0-9.98-7.73-18.19-17.68-18.93C246.55,446.31,56.12,255.88,38.28,17.33
		C37.54,7.39,29.33-0.34,19.35-0.34z"/>
	<path class="st2" d="M502.77,483.08c0-9.98-7.73-18.19-17.68-18.93C246.55,446.31,56.12,255.88,38.28,17.33
		c-0.22-2.99-1.13-5.77-2.55-8.2l-0.03,0.01c-1.63-2.82-3.96-5.19-6.77-6.85c-0.02-0.01-0.05-0.03-0.07-0.04
		c-0.67-0.39-1.36-0.74-2.07-1.05c-0.03-0.01-0.05-0.02-0.08-0.03c-0.28-0.12-0.57-0.23-0.85-0.33c-0.21-0.08-0.41-0.15-0.62-0.22
		c-0.25-0.08-0.51-0.17-0.76-0.24c-0.44-0.12-0.89-0.24-1.35-0.33c-0.18-0.04-0.36-0.06-0.53-0.09c-0.36-0.06-0.73-0.12-1.1-0.16
		c-0.18-0.02-0.36-0.04-0.55-0.06c-0.51-0.04-1.03-0.07-1.55-0.07c-0.02,0-0.04,0-0.06,0c-0.62,0-1.24,0.04-1.84,0.1
		c-0.16,0.02-0.32,0.04-0.49,0.06c-0.46,0.06-0.92,0.13-1.37,0.22c-0.16,0.03-0.32,0.06-0.47,0.09c-0.57,0.13-1.13,0.28-1.68,0.45
		c-0.12,0.04-0.23,0.09-0.34,0.12c-0.42,0.15-0.84,0.31-1.24,0.48c-0.22,0.1-0.45,0.2-0.67,0.3c-0.28,0.13-0.55,0.27-0.83,0.42
		c-0.25,0.13-0.5,0.26-0.74,0.41c-0.16,0.09-0.3,0.2-0.46,0.29C8.6,3,8.02,3.41,7.46,3.86C7.4,3.91,7.34,3.96,7.28,4.01
		C4.76,6.1,2.8,8.82,1.63,11.94l-0.04-0.03c-0.95,2.51-1.4,5.25-1.18,8.11C19.56,277.39,225.04,482.86,482.4,502.02
		C493.4,502.84,502.77,494.11,502.77,483.08z"/>
</g>
</svg>
