<?xml version="1.0" encoding="utf-8"?>
<!-- Generator: Adobe Illustrator 24.0.0, SVG Export Plug-In . SVG Version: 6.00 Build 0)  -->
<svg version="1.1" id="Layer_1" xmlns="http://www.w3.org/2000/svg" xmlns:xlink="http://www.w3.org/1999/xlink" x="0px" y="0px"
	 viewBox="0 0 503 502" style="enable-background:new 0 0 503 502;" xml:space="preserve">
<style type="text/css">
	.st0{fill:#BBDEFB;}
	.st1{fill:#E8E8E8;}
</style>
<g>
	<path class="st0" d="M502.6,20v462c0,11-9,20-20,20h-462c-11.2,0-20.3-9.1-20.3-20.4l0,0l39.9-129.6L120,200.2l101.3-96.5
		l144.8-69.6L482.2-0.3l0,0C493.5-0.3,502.6,8.8,502.6,20z"/>
	<path class="st1" d="M38.1,484.4c17.8-238.5,208.3-429,446.8-446.8c9.9-0.7,17.7-9,17.7-18.9v0c0-11-9.4-19.8-20.4-18.9
		c-257.4,19.2-462.8,224.6-482,482c-0.8,11,7.9,20.4,18.9,20.4h0C29.1,502.1,37.4,494.4,38.1,484.4z"/>
</g>
</svg>
