<?xml version="1.0" encoding="utf-8"?>
<!-- Generator: Adobe Illustrator 24.1.0, SVG Export Plug-In . SVG Version: 6.00 Build 0)  -->
<svg version="1.1" id="Layer_1" xmlns="http://www.w3.org/2000/svg" xmlns:xlink="http://www.w3.org/1999/xlink" x="0px" y="0px"
	 viewBox="0 0 502 502" style="enable-background:new 0 0 502 502;" xml:space="preserve">
<style type="text/css">
	.st0{fill:#FFF9C4;}
	.st1{fill:#E8E8E8;}
	.st2{fill:#FFEB3B;}
</style>
<g>
	<path class="st0" d="M-0.41,481.7V19.66c0-11.05,8.95-20,20-20l462.05,0c11.24,0,20.35,9.13,20.32,20.37v0l-60.74,183.36
		l-93.89,122.37l-96.52,88.62L41.91,485.06l-21.95,16.96h0C8.72,502.05-0.41,492.94-0.41,481.7z"/>
	<path class="st1" d="M464.08,17.33C446.25,255.88,255.81,446.31,17.27,464.15c-9.95,0.74-17.68,8.96-17.68,18.93v0
		c0,11.03,9.37,19.75,20.37,18.94C277.33,482.86,482.8,277.39,501.95,20.03c0.82-11-7.91-20.37-18.94-20.37h0
		C473.04-0.34,464.82,7.39,464.08,17.33z"/>
	<path class="st2" d="M483.02-0.34L483.02-0.34c-9.98,0-18.2,7.73-18.94,17.68C446.28,255.45,256.5,445.62,18.56,464.04v0.1
		c-1.3,0-2.57,0.13-3.79,0.38c-0.03,0.01-0.06,0.01-0.09,0.02c-0.54,0.11-1.07,0.25-1.6,0.41c-0.13,0.04-0.27,0.09-0.4,0.13
		c-0.42,0.14-0.84,0.29-1.25,0.46c-0.19,0.08-0.37,0.16-0.56,0.24c-0.35,0.16-0.7,0.32-1.04,0.5c-0.21,0.11-0.42,0.22-0.62,0.34
		c-0.31,0.18-0.62,0.36-0.91,0.56c-0.21,0.13-0.41,0.27-0.62,0.41c-0.29,0.2-0.57,0.41-0.84,0.63c-0.19,0.15-0.39,0.31-0.57,0.46
		c-0.27,0.23-0.53,0.47-0.79,0.72c-0.17,0.16-0.34,0.32-0.51,0.49c-0.26,0.27-0.51,0.54-0.75,0.82c-0.14,0.17-0.29,0.33-0.43,0.5
		c-0.25,0.3-0.48,0.62-0.7,0.94c-0.12,0.16-0.24,0.33-0.35,0.49c-0.23,0.35-0.44,0.7-0.65,1.06c-0.09,0.16-0.19,0.31-0.27,0.47
		c-0.21,0.39-0.39,0.79-0.58,1.2c-0.06,0.14-0.14,0.29-0.2,0.43c-0.18,0.44-0.34,0.88-0.49,1.34c-0.04,0.13-0.09,0.25-0.13,0.38
		c-0.15,0.49-0.27,0.99-0.39,1.5c-0.02,0.1-0.05,0.19-0.07,0.29c-0.12,0.57-0.2,1.16-0.27,1.75c0,0.04-0.01,0.07-0.02,0.11
		c-0.06,0.63-0.1,1.28-0.1,1.92c0,0.63,0.04,1.24,0.1,1.85c0.02,0.16,0.04,0.32,0.06,0.48c0.06,0.47,0.13,0.93,0.22,1.39
		c0.03,0.15,0.06,0.31,0.1,0.46c0.12,0.55,0.27,1.09,0.44,1.62c0.01,0.03,0.02,0.07,0.03,0.1c0.19,0.58,0.41,1.15,0.66,1.7
		c0.05,0.1,0.1,0.2,0.15,0.31c0.2,0.44,0.42,0.87,0.65,1.29c0.07,0.13,0.15,0.27,0.23,0.4c0.25,0.42,0.51,0.83,0.79,1.22
		c0.06,0.09,0.12,0.18,0.18,0.26c0.34,0.47,0.71,0.93,1.09,1.37c0.08,0.09,0.17,0.18,0.25,0.27c0.3,0.33,0.62,0.65,0.94,0.97
		c0.14,0.14,0.29,0.27,0.44,0.41c0.28,0.26,0.58,0.5,0.88,0.74c0.16,0.13,0.32,0.26,0.49,0.39c0.38,0.28,0.78,0.55,1.18,0.81
		c0.24,0.15,0.49,0.29,0.73,0.43c0.29,0.17,0.58,0.33,0.88,0.48c0.27,0.13,0.54,0.26,0.81,0.38c0.24,0.11,0.48,0.21,0.72,0.3
		c0.3,0.12,0.6,0.23,0.91,0.34c2.33,0.79,4.84,1.15,7.46,0.95C277.33,482.86,482.8,277.39,501.95,20.03
		C502.77,9.03,494.05-0.34,483.02-0.34z"/>
</g>
</svg>
