<?xml version="1.0" encoding="utf-8"?>
<!-- Generator: Adobe Illustrator 24.1.0, SVG Export Plug-In . SVG Version: 6.00 Build 0)  -->
<svg version="1.1" id="Layer_1" xmlns="http://www.w3.org/2000/svg" xmlns:xlink="http://www.w3.org/1999/xlink" x="0px" y="0px"
	 viewBox="0 0 502 502" style="enable-background:new 0 0 502 502;" xml:space="preserve">
<style type="text/css">
	.st0{fill:#FFF9C4;}
	.st1{fill:#E8E8E8;}
	.st2{fill:#FFEB3B;}
</style>
<g>
	<path class="st0" d="M-0.41,481.7V19.66c0-11.05,8.95-20,20-20l462.05,0c11.24,0,20.35,9.13,20.32,20.37v0l-60.74,183.36
		l-93.89,122.37l-96.52,88.62L41.91,485.06l-21.95,16.96h0C8.72,502.05-0.41,492.94-0.41,481.7z"/>
	<path class="st1" d="M464.08,17.33C446.25,255.88,255.81,446.31,17.27,464.15c-9.95,0.74-17.68,8.96-17.68,18.93v0
		c0,11.03,9.37,19.75,20.37,18.94C277.33,482.86,482.8,277.39,501.95,20.03c0.82-11-7.91-20.37-18.94-20.37h0
		C473.04-0.34,464.82,7.39,464.08,17.33z"/>
	<path class="st2" d="M483.02-0.34L483.02-0.34c-9.98,0-18.2,7.73-18.94,17.68c-7.48,100.11-45.38,191.75-104.46,265.71l-0.1,0.23
		l0,0c-2.77,3.3-4.44,7.54-4.44,12.18c0,10.47,8.49,18.97,18.97,18.97c5.73,0,10.86-2.55,14.33-6.57l0.01,0.01
		c64.27-80,105.48-179.3,113.56-287.84C502.77,9.03,494.05-0.34,483.02-0.34z"/>
</g>
</svg>
