<?xml version="1.0" encoding="utf-8"?>
<!-- Generator: Adobe Illustrator 24.1.0, SVG Export Plug-In . SVG Version: 6.00 Build 0)  -->
<svg version="1.1" id="Layer_1" xmlns="http://www.w3.org/2000/svg" xmlns:xlink="http://www.w3.org/1999/xlink" x="0px" y="0px"
	 viewBox="0 0 502 502" style="enable-background:new 0 0 502 502;" xml:space="preserve">
<style type="text/css">
	.st0{fill:#FFF9C4;}
	.st1{fill:#E8E8E8;}
</style>
<g>
	<path class="st0" d="M-0.41,481.7V19.66c0-11.05,8.95-20,20-20l462.05,0c11.24,0,20.35,9.13,20.32,20.37v0l-60.74,183.36
		l-93.89,122.37l-96.52,88.62L41.91,485.06l-21.95,16.96h0C8.72,502.05-0.41,492.94-0.41,481.7z"/>
	<path class="st1" d="M464.08,17.33C446.25,255.88,255.81,446.31,17.27,464.15c-9.95,0.74-17.68,8.96-17.68,18.93v0
		c0,11.03,9.37,19.75,20.37,18.94C277.33,482.86,482.8,277.39,501.95,20.03c0.82-11-7.91-20.37-18.94-20.37h0
		C473.04-0.34,464.82,7.39,464.08,17.33z"/>
</g>
</svg>
